# xmcd
#
# Track frame offsets: 
#        150
#        19537
#        36624
#        53688
#        70532
#        86694
#        107019
#        126144
#        143169
#        161619
#        180894
#        203806
#        221806
#        240314
#        257708
#        278933
#        293927
#
# Disc length: 4193 seconds
#
# Revision: 0
# Processed by: cddbd v1.5.2PL0 Copyright (c) Steve Scherf et al.
# Submitted via: ExactAudioCopy v1.3
#
DISCID=f2105f11
DTITLE=Drake Jensen - Sideshow
DYEAR=2019
DGENRE=Country
TTITLE0=Wash Me Away
TTITLE1=On My Way To Finding You
TTITLE2=It's Not About Me Anymore
TTITLE3=I Found Me
TTITLE4=When It Hurts Like That
TTITLE5=Scars
TTITLE6=Checotah, Oklahoma
TTITLE7=Fast Enough For Me
TTITLE8=I Drove All Night
TTITLE9=Smoke Rings In The Dark
TTITLE10=Eyes Without A Face
TTITLE11=You Lie
TTITLE12=Wherever Love Takes Us
TTITLE13=Go Your Own Way
TTITLE14=Beautiful Colours
TTITLE15=Talk Me Down
TTITLE16=Which Way Does The River Run
EXTD=
EXTT0=
EXTT1=
EXTT2=
EXTT3=
EXTT4=
EXTT5=
EXTT6=
EXTT7=
EXTT8=
EXTT9=
EXTT10=
EXTT11=
EXTT12=
EXTT13=
EXTT14=
EXTT15=
EXTT16=
PLAYORDER=
